<svg width="200" height="200" viewBox="0 0 200 200" fill="none" xmlns="http://www.w3.org/2000/svg">
<path d="M0 22.2222V177.778C0 190 9.88889 200 22.2222 200H177.778C190 200 200 190 200 177.778V22.2222C200 10 190 0 177.778 0H22.2222C9.88889 0 0 10 0 22.2222ZM133.333 66.6667C133.333 85.1111 118.444 100 100 100C81.5556 100 66.6667 85.1111 66.6667 66.6667C66.6667 48.2222 81.5556 33.3333 100 33.3333C118.444 33.3333 133.333 48.2222 133.333 66.6667ZM33.3333 155.556C33.3333 133.333 77.7778 121.111 100 121.111C122.222 121.111 166.667 133.333 166.667 155.556V166.667H33.3333V155.556Z" fill="#127fd5"/>
</svg>
